<svg xmlns="http://www.w3.org/2000/svg" xml:space="preserve" id="레이어_1" width="2048" height="2048" x="0px" y="0px" version="1.1" viewBox="0 0 2048 2048"><style>.st1{fill:#fff}</style><g id="XMLID_1_"><g id="g10"><path id="path4" d="M1024 0c565.6 0 1024 458.4 1024 1024s-458.4 1024-1024 1024S0 1589.6 0 1024 458.4 0 1024 0" style="fill:#004098"/><path id="path6" d="m1451.5 1262.2-112.4-157.5L1527.4 876l258.6 314.3c-76.1 350.7-388.5 613.5-762 613.5-355.6 0-655.8-238.2-749.4-563.7L577 876l311.1 435.4 28.6-21.8-151.4-211.9 271.3-334.6 386.2 540.7z" class="st1"/><path id="path8" d="M1024 76.4c523.3 0 947.6 424.3 947.6 947.6s-424.3 947.6-947.6 947.6S76.4 1547.3 76.4 1024 500.7 76.4 1024 76.4m817.8 947.6c0-451.6-366.2-817.8-817.8-817.8S206.2 572.4 206.2 1024s366.2 817.8 817.8 817.8 817.8-366.2 817.8-817.8" class="st1"/></g></g></svg>